<svg width="99" height="71" viewBox="0 0 99 71" fill="none" xmlns="http://www.w3.org/2000/svg">
<path d="M25 63H70V71H25V63Z" fill="#37617D"/>
<path d="M21 0.999995H71V9H21V0.999995Z" fill="#37617D"/>
<path d="M37 32H41V36H37V32Z" fill="#37617D"/>
<path d="M98.9082 25.7066H84.3652C84.0996 23.8251 83.5573 22.1539 82.7383 20.693C81.9193 19.2099 80.8678 17.9482 79.584 16.9078C78.3001 15.8674 76.8171 15.0706 75.1348 14.5172C73.4746 13.9638 71.6706 13.6871 69.7227 13.6871C66.2031 13.6871 63.1374 14.5615 60.5254 16.3102C57.9134 18.0367 55.888 20.5602 54.4492 23.8805C53.0104 27.1786 52.291 31.1851 52.291 35.9C52.291 40.7476 53.0104 44.8206 54.4492 48.1187C55.9102 51.4169 57.9466 53.9072 60.5586 55.5894C63.1706 57.2717 66.1921 58.1129 69.623 58.1129C71.5488 58.1129 73.3307 57.8583 74.9688 57.3492C76.6289 56.8401 78.1009 56.0986 79.3848 55.1246C80.6686 54.1285 81.7311 52.9221 82.5723 51.5055C83.4356 50.0888 84.0332 48.4729 84.3652 46.6578L98.9082 46.7242C98.5319 49.8453 97.5912 52.8557 96.0859 55.7555C94.6029 58.6331 92.5996 61.2118 90.0762 63.4918C87.5749 65.7496 84.5866 67.5426 81.1113 68.8707C77.6582 70.1767 73.7513 70.8297 69.3906 70.8297C63.3255 70.8297 57.9023 69.4573 53.1211 66.7125C48.362 63.9677 44.599 59.9944 41.832 54.7926C39.0872 49.5908 37.7148 43.2932 37.7148 35.9C37.7148 28.4846 39.1094 22.176 41.8984 16.9742C44.6875 11.7724 48.4727 7.81015 53.2539 5.0875C58.0352 2.3427 63.4141 0.970306 69.3906 0.970306C73.3307 0.970306 76.9831 1.52369 80.3477 2.63046C83.7344 3.73723 86.7337 5.35312 89.3457 7.47812C91.9577 9.58098 94.0827 12.1598 95.7207 15.2144C97.3809 18.2691 98.4434 21.7665 98.9082 25.7066Z" fill="#37617D"/>
<path d="M0.068182 71V1.18181H28.0227C33.1591 1.18181 37.4432 1.94318 40.875 3.4659C44.3068 4.98863 46.8864 7.10227 48.6136 9.80681C50.3409 12.4886 51.2045 15.5795 51.2045 19.0795C51.2045 21.8068 50.6591 24.2045 49.5682 26.2727C48.4773 28.3182 46.9773 30 45.0682 31.3182C43.1818 32.6136 41.0227 33.5341 38.5909 34.0795V34.7614C41.25 34.875 43.7386 35.625 46.0568 37.0114C48.3977 38.3977 50.2955 40.3409 51.75 42.8409C53.2045 45.3182 53.9318 48.2727 53.9318 51.7045C53.9318 55.4091 53.0114 58.7159 51.1705 61.625C49.3523 64.5114 46.6591 66.7954 43.0909 68.4773C39.5227 70.1591 35.125 71 29.8977 71H0.068182ZM14.8295 58.9318H26.8636C30.9773 58.9318 33.9773 58.1477 35.8636 56.5795C37.75 54.9886 38.6932 52.875 38.6932 50.2386C38.6932 48.3068 38.2273 46.6023 37.2955 45.125C36.3636 43.6477 35.0341 42.4886 33.3068 41.6477C31.6023 40.8068 29.5682 40.3864 27.2045 40.3864H14.8295V58.9318ZM14.8295 30.3977H25.7727C27.7955 30.3977 29.5909 30.0454 31.1591 29.3409C32.75 28.6136 34 27.5909 34.9091 26.2727C35.8409 24.9545 36.3068 23.375 36.3068 21.5341C36.3068 19.0114 35.4091 16.9773 33.6136 15.4318C31.8409 13.8864 29.3182 13.1136 26.0455 13.1136H14.8295V30.3977Z" fill="#37617D"/>
</svg>
